<svg xmlns="http://www.w3.org/2000/svg" width="23.153" height="23.153" viewBox="0 0 23.153 23.153"><g transform="translate(-546.24 -346.67)"><path d="M25.011-146.746a10.8,10.8,0,0,0,.869,4.317,11.036,11.036,0,0,0,2.382,3.516,11.345,11.345,0,0,0,3.531,2.367,10.8,10.8,0,0,0,4.317.87,10.8,10.8,0,0,0,4.317-.87,11.161,11.161,0,0,0,3.516-2.367,11.057,11.057,0,0,0,2.359-3.516,10.878,10.878,0,0,0,.862-4.317,10.878,10.878,0,0,0-.862-4.317,11.148,11.148,0,0,0-2.359-3.523,11.1,11.1,0,0,0-3.516-2.374,10.8,10.8,0,0,0-4.317-.869,10.8,10.8,0,0,0-4.317.869,11.28,11.28,0,0,0-3.531,2.374,11.125,11.125,0,0,0-2.382,3.523A10.8,10.8,0,0,0,25.011-146.746Zm4.249,0a7.19,7.19,0,0,1,.522-2.745,6.944,6.944,0,0,1,1.444-2.23,6.739,6.739,0,0,1,2.17-1.5,6.712,6.712,0,0,1,2.714-.544,6.712,6.712,0,0,1,2.714.544,6.653,6.653,0,0,1,2.162,1.5,6.905,6.905,0,0,1,1.429,2.23,7.283,7.283,0,0,1,.514,2.745A7.283,7.283,0,0,1,42.416-144a6.818,6.818,0,0,1-1.429,2.223,6.71,6.71,0,0,1-2.162,1.489,6.712,6.712,0,0,1-2.714.544,6.712,6.712,0,0,1-2.714-.544,6.8,6.8,0,0,1-2.17-1.489A6.856,6.856,0,0,1,29.782-144,7.19,7.19,0,0,1,29.26-146.746Z" transform="translate(521.729 505)" stroke="rgba(0,0,0,0)" stroke-miterlimit="10" stroke-width="1"/><rect width="3.774" height="18.485" transform="translate(555.849 348.809)" stroke="rgba(0,0,0,0)" stroke-miterlimit="10" stroke-width="1"/></g></svg>