<svg xmlns="http://www.w3.org/2000/svg" width="100.31" height="51" viewBox="0 0 100.31 51"><path d="M23.59,49.13a11.346,11.346,0,0,1-3.531-2.367,11.036,11.036,0,0,1-2.382-3.516,11.153,11.153,0,0,1,0-8.634,11.125,11.125,0,0,1,2.382-3.523,11.28,11.28,0,0,1,3.531-2.374,11.153,11.153,0,0,1,8.634,0,11.031,11.031,0,0,1,5.875,5.9,11.243,11.243,0,0,1,0,8.634,11,11,0,0,1-5.875,5.882,11.152,11.152,0,0,1-8.634,0Zm6.1-3.42a6.343,6.343,0,0,0,.93-.322,6.71,6.71,0,0,0,2.162-1.49,6.818,6.818,0,0,0,1.429-2.223,7.582,7.582,0,0,0,0-5.489,6.9,6.9,0,0,0-1.429-2.23,6.652,6.652,0,0,0-2.162-1.5,6.34,6.34,0,0,0-.93-.322Zm-4.5-13.251a6.738,6.738,0,0,0-2.17,1.5,6.943,6.943,0,0,0-1.444,2.23,7.48,7.48,0,0,0,0,5.489,6.763,6.763,0,0,0,3.614,3.712,6.328,6.328,0,0,0,.724.265V32.194A6.322,6.322,0,0,0,25.193,32.459ZM88.6,49.713q-.575,0-.575-.6V40.64L81.12,28.8q-.166-.3-.038-.476a.465.465,0,0,1,.4-.174h3.569a.668.668,0,0,1,.416.121,1.227,1.227,0,0,1,.31.408l4.385,8.468,4.37-8.453a.808.808,0,0,1,.711-.529h3.614a.445.445,0,0,1,.393.174.473.473,0,0,1-.015.476l-6.956,11.81v8.483q0,.6-.56.6Zm-25.208,0a.5.5,0,0,1-.56-.575V28.724a.5.5,0,0,1,.56-.575h9.36a5.718,5.718,0,0,1,2.314.469A5.843,5.843,0,0,1,78.186,31.8a6.45,6.45,0,0,1,.045,4.635,4.5,4.5,0,0,1-1.24,1.754,5.115,5.115,0,0,1,1.1.983,6.62,6.62,0,0,1,.832,1.255,6.4,6.4,0,0,1,.529,1.452,6.847,6.847,0,0,1,.181,1.573,6.282,6.282,0,0,1-.461,2.389,6.5,6.5,0,0,1-1.263,2,6.076,6.076,0,0,1-1.875,1.368,5.352,5.352,0,0,1-2.314.507Zm3.675-3.538h5.5a2.6,2.6,0,0,0,1.179-.257,2.706,2.706,0,0,0,.862-.665,2.785,2.785,0,0,0,.522-.922,3.193,3.193,0,0,0,.174-1.028,3.1,3.1,0,0,0-.234-1.21,3.188,3.188,0,0,0-.62-.968,2.88,2.88,0,0,0-.892-.643,2.475,2.475,0,0,0-1.051-.234H67.072Zm0-9.269h4.567a2.884,2.884,0,0,0,2.034-.7,2.491,2.491,0,0,0,.764-1.928,2.829,2.829,0,0,0-.2-1.074,2.3,2.3,0,0,0-.56-.824,2.553,2.553,0,0,0-.877-.529,3.265,3.265,0,0,0-1.134-.189h-4.6ZM43.331,49.713a.5.5,0,0,1-.56-.575V28.724a.5.5,0,0,1,.56-.575h9.36A5.718,5.718,0,0,1,55,28.618,5.842,5.842,0,0,1,58.12,31.8a6.45,6.45,0,0,1,.045,4.635,4.5,4.5,0,0,1-1.24,1.754,5.115,5.115,0,0,1,1.1.983,6.62,6.62,0,0,1,.832,1.255,6.4,6.4,0,0,1,.529,1.452,6.843,6.843,0,0,1,.181,1.573,6.282,6.282,0,0,1-.461,2.389,6.5,6.5,0,0,1-1.263,2,6.076,6.076,0,0,1-1.875,1.368,5.353,5.353,0,0,1-2.314.507Zm3.674-3.538h5.5a2.6,2.6,0,0,0,1.179-.257,2.706,2.706,0,0,0,.862-.665,2.785,2.785,0,0,0,.522-.922,3.192,3.192,0,0,0,.174-1.028,3.1,3.1,0,0,0-.234-1.21,3.186,3.186,0,0,0-.62-.968,2.88,2.88,0,0,0-.892-.643,2.475,2.475,0,0,0-1.051-.234H47.005Zm0-9.269h4.567a2.884,2.884,0,0,0,2.034-.7,2.491,2.491,0,0,0,.764-1.928,2.829,2.829,0,0,0-.2-1.074,2.3,2.3,0,0,0-.56-.824,2.552,2.552,0,0,0-.877-.529,3.264,3.264,0,0,0-1.134-.189h-4.6ZM2.14,49.713a.5.5,0,0,1-.56-.575V28.754a.6.6,0,0,1,.159-.446.543.543,0,0,1,.4-.159H5.255q.559,0,.559.6V45.705h9.149q.6,0,.6.56v2.873q0,.575-.6.575Zm34.1-31.743a.418.418,0,0,1-.466-.479v-17a.418.418,0,0,1,.466-.479h11.82a.429.429,0,0,1,.491.479V2.835a.429.429,0,0,1-.491.479H39.3V6.981h6.679a.605.605,0,0,1,.4.12.455.455,0,0,1,.145.372V9.766q0,.479-.542.479H39.3V14.68h8.985q.5,0,.5.479v2.331q0,.479-.5.479Zm-7.46,0q-.466,0-.466-.491V10.22H20.263v7.258q0,.491-.517.491H17.2q-.466,0-.466-.491V.517a.565.565,0,0,1,.113-.359A.42.42,0,0,1,17.2.013h2.608a.566.566,0,0,1,.3.095.42.42,0,0,1,.151.384V6.817h8.052V.517a.565.565,0,0,1,.113-.359.42.42,0,0,1,.353-.145H31.39a.566.566,0,0,1,.3.095.42.42,0,0,1,.151.384V17.478q0,.491-.517.491Zm-23.2,0a.423.423,0,0,1-.479-.479V3.251H.479A.429.429,0,0,1,0,2.76V.479A.423.423,0,0,1,.479,0H13.42a.418.418,0,0,1,.466.479V2.76q0,.492-.466.491H8.657V17.491a.423.423,0,0,1-.479.479Z" transform="translate(0.5 0.5)" stroke="rgba(0,0,0,0)" stroke-miterlimit="10" stroke-width="1"/></svg>